<svg xmlns="http://www.w3.org/2000/svg" width="283" height="189" fill="none">
  <rect width="282.799" height="188.101" fill="#fff" rx="8"/>
  <path fill="#000" fill-rule="evenodd" d="M166.123 16.177a1.32 1.32 0 0 1 1.321 0l9.237 5.336 8.024-4.635a1.32 1.32 0 0 1 1.321 0l30.742 17.76 8.02-4.633a1.32 1.32 0 0 1 1.321 0l16.093 9.299c.409.236.661.672.661 1.145v9.266l21.785 12.586c.409.236.661.672.661 1.145v9.271l.829.48c.409.235.661.672.661 1.144v10.14c0 .472-.252.908-.66 1.145l-13.738 7.937a1.32 1.32 0 0 1-1.321 0l-10.174-5.88a1.321 1.321 0 0 1-.66-1.144v-10.14c0-.472.251-.908.66-1.144l2.981-1.722-20.37-11.768a1.322 1.322 0 0 1-.661-1.145V51.35l-6.088-3.518-8.023 4.636a1.32 1.32 0 0 1-1.321 0l-30.465-17.601-.425.245-1.322-2.289.426-.246V25.49l-11.755 6.792a1.32 1.32 0 0 1-1.321 0l-10.175-5.878.4-.693h-1.061v-.452c0-.473.252-.909.661-1.145l13.736-7.936Zm-10.433 9.08 7.532 4.353 11.094-6.41-7.532-4.352-11.094 6.41Zm22.59.232v7.087l28.483 16.456v-7.087L178.28 25.49Zm31.125 16.456v7.087l6.042-3.49v-7.087l-6.042 3.49Zm8.684-3.49v7.087l5.998 3.465 6.133-3.543-12.131-7.009Zm17.415 7.009 4.717 2.725v-5.45l-4.717 2.725Zm3.396-5.015-13.452-7.773-6.038 3.49 13.452 7.772 6.038-3.49Zm-6.038 6.541-6.042 3.491 28.483 16.456 6.043-3.491-28.484-16.456Zm29.805 18.745-4.722 2.728 4.722 2.728v-5.456Zm.169 8.606-7.533-4.35-11.094 6.409 7.531 4.352 11.096-6.41Zm-12.417 8.7-7.531-4.352v7.087l7.531 4.352V83.04Zm2.642 7.087 11.096-6.41V76.63l-11.096 6.41v7.087Zm-27.562-37.252v6.981l21.03 12.15 6.041-3.491-27.071-15.64Zm-11.373-16.71-28.76-16.617-6.042 3.49 28.76 16.617 6.042-3.49ZM30.398 94.428a1.32 1.32 0 0 1 1.321 0l10.174 5.878c.409.237.66.673.66 1.145v10.249c0 .473-.251.909-.66 1.145l-2.885 1.667 20.274 11.713c.409.236.66.672.66 1.145v9.272l6.09 3.517 8.022-4.635a1.316 1.316 0 0 1 1.321 0l30.465 17.601 13.076-7.556a1.32 1.32 0 0 1 1.321 0l10.175 5.879c.409.236.661.673.661 1.145v10.249c0 .472-.252.909-.661 1.145l-13.736 7.936a1.32 1.32 0 0 1-1.321 0l-9.237-5.336-8.024 4.635a1.32 1.32 0 0 1-1.321 0L66.03 153.462l-8.02 4.634a1.321 1.321 0 0 1-1.32 0l-16.094-9.299a1.321 1.321 0 0 1-.66-1.145v-9.266L18.15 125.8a1.321 1.321 0 0 1-.66-1.145v-9.271l-.83-.479A1.324 1.324 0 0 1 16 113.76v-10.25c0-.472.252-.908.66-1.144l13.738-7.938Zm-10.266 22.267v7.196l20.936 12.094 6.227-3.597-27.163-15.693Zm29.805 14.166-28.483-16.456 6.042-3.49 28.484 16.455-6.043 3.491Zm7.364-1.201-4.722 2.728 4.721 2.727v-5.455Zm-27.163-20.272 6.227 3.598 3.546-2.049v-7.196l-9.773 5.647Zm8.452-7.937-11.094 6.411-7.533-4.353L31.06 97.1l7.531 4.352ZM18.642 105.8v7.177l6.212-3.588-6.212-3.589Zm31.295 28.115-6.037 3.488 13.45 7.772 6.04-3.489-13.453-7.771Zm14.773 10.061-6.038 3.489v7.196l6.038-3.489v-7.196Zm2.643 7.196 28.759 16.617v-7.197l-28.76-16.616v7.196Zm1.32-9.486 28.76 16.617 6.042-3.491-28.76-16.616-6.041 3.49Zm35.949 15.516-5.868 3.39v7.197l5.868-3.39v-7.197Zm2.642 6.995 7.43 4.292v-7.196l-7.43-4.292v7.196Zm10.072-2.904v7.196l11.095-6.409v-7.196l-11.095 6.409Zm9.774-8.699-11.095 6.409-7.532-4.351 11.094-6.41 7.533 4.352Zm-71.08 2.067-13.452-7.772v-7.196l13.452 7.772v7.196Z" clip-rule="evenodd"/>
  <path fill="#F9703E" d="M104.333 82.573 48.168 49.95v41.763l56.165 32.624V82.573ZM94.113 36.945l.002 23.246 12.779 7.297 20.134-11.617-32.915-18.926Z"/>
  <path fill="#000" d="M177.999 85.319v41.622l34.877-20.13V65.249l-34.877 20.07ZM104.333 82.719v41.622l34.876-20.13-.608-41.212-34.268 19.72ZM151.397 69.771v41.978l13.286-7.641-.001-26.483 21.652-12.508V49.834l-34.937 19.937ZM140.998 47.8l34.875-20.15v12.84l-23.764 13.73-11.111-6.42ZM73.99 48.478l20.123-11.533.002 23.246L73.99 48.478ZM199.558 57.475l13.969-8.07v16.222l-13.969-8.151ZM116.015 160.53v10.028l13.966-7.854-.229-10.11-13.737 7.936ZM97.433 159.829v10.249l8.51-4.916v-10.249l-8.51 4.916ZM57.35 146.702l8.681-5.016v10.25l-8.68 5.015v-10.249ZM50.153 132.263l8.468-4.892v9.81l-8.468-4.918ZM27.79 109.389l13.442-7.937v10.249l-4.778 2.864-8.665-5.176ZM251.74 82.278v10.14l13.738-7.937-.287-9.973-13.451 7.77ZM255.535 68.329l8.453-4.883v10.139l-8.453-5.256ZM208.433 41.182l8.08-4.87.254 9.993-4.166 2.407-4.44-2.407.272-5.123ZM232.862 45.464l8.465-4.891.214 10.015-8.679-5.124ZM172.822 25.71l3.837-2.336.185 4.779-4.022-2.443Z"/>
  <path fill="#F9703E" d="m164.682 77.625 34.876-20.15 13.318 7.694L178 85.32l-13.318-7.694ZM151.397 69.771l34.937-19.937 13.224 7.641 13.969-8.07-26.542-15.335-34.876 20.15-11.111-6.42-13.97 8.07 24.369 13.901ZM175.873 27.65l-13.317-7.693-34.532 20.242 12.974 7.601 34.875-20.15Z"/>
  <path fill="#000" fill-rule="evenodd" d="M161.889 18.816a1.32 1.32 0 0 1 1.328-.004l13.316 7.694c.409.236.661.672.661 1.145v10.593l9.127-5.316a1.32 1.32 0 0 1 1.325-.003l26.542 15.335c.408.236.66.673.66 1.145v41.588c0 .468-.248.902-.651 1.14v14.678c0 .473-.252.909-.661 1.146l-34.876 20.129a1.32 1.32 0 0 1-1.323-.001l-13.318-7.73a1.322 1.322 0 0 1-.658-1.144l.001-12.813-11.243 6.496a1.32 1.32 0 0 1-1.315.003l-12.199-6.961-33.612 19.387a1.32 1.32 0 0 1-1.321 0L47.507 92.858a1.322 1.322 0 0 1-.66-1.145V49.957c0-.472.252-.908.66-1.144l34.307-19.829a1.32 1.32 0 0 1 1.321 0l10.978 6.343 13.537-7.822a1.32 1.32 0 0 1 1.328.004l19.046 11.158 33.865-19.851Zm.672 2.67-33.87 19.853a1.32 1.32 0 0 1-1.335 0l-19.05-11.16L94.774 38a1.32 1.32 0 0 1-1.321 0l-10.978-6.343L49.489 50.72v40.23l54.845 31.701 33.608-19.385a1.318 1.318 0 0 1 1.314-.003l12.198 6.961 12.569-7.262a1.32 1.32 0 0 1 1.981 1.145l-.001 14.342 11.999 6.964 33.553-19.366V91.372c0-.469.248-.902.651-1.14V50.169l-25.218-14.57-10.451 6.088a1.32 1.32 0 0 1-1.985-1.142v-12.13l-11.991-6.928Z" clip-rule="evenodd"/>
  <path fill="#000" fill-rule="evenodd" d="M214.671 48.744c.365.632.148 1.44-.483 1.806l-13.969 8.07a1.32 1.32 0 0 1-1.321 0l-12.564-7.259-34.215 19.768a1.32 1.32 0 0 1-1.315.003l-12.199-6.96-33.612 19.388a1.321 1.321 0 0 1-1.321 0L47.507 51.093a1.322 1.322 0 0 1 1.322-2.29l55.505 32.084 33.608-19.385a1.32 1.32 0 0 1 1.314-.003l12.198 6.96 34.22-19.77a1.32 1.32 0 0 1 1.321 0l12.563 7.259 13.309-7.689a1.32 1.32 0 0 1 1.804.484Z" clip-rule="evenodd"/>
  <path fill="#000" fill-rule="evenodd" d="M198.898 56.33a1.32 1.32 0 0 1 1.321 0l13.317 7.695a1.322 1.322 0 0 1 0 2.29L178.66 86.463a1.32 1.32 0 0 1-1.321 0l-13.318-7.694a1.323 1.323 0 0 1 0-2.29l34.877-20.15Zm.66 2.672-32.234 18.623L178 83.792l32.234-18.623-10.676-6.167ZM177.017 26.99c.365.632.148 1.44-.484 1.806L129.6 55.9l9.664 5.603a1.322 1.322 0 0 1-1.325 2.288l-10.98-6.366-19.404 11.207a1.32 1.32 0 0 1-1.321 0L73.33 49.623a1.322 1.322 0 0 1 0-2.29L93.453 35.71a1.32 1.32 0 0 1 1.322.001l32.187 18.662 48.25-27.866a1.321 1.321 0 0 1 1.805.484Zm-52.695 28.907L94.112 38.38 76.633 48.478l30.262 17.484 17.427-10.065Z" clip-rule="evenodd"/>
  <path fill="#000" fill-rule="evenodd" d="M126.882 39.534a1.32 1.32 0 0 1 1.806-.478l23.425 13.636 23.101-13.294a1.32 1.32 0 1 1 1.317 2.292l-23.763 13.675a1.32 1.32 0 0 1-1.323-.003l-24.086-14.02a1.323 1.323 0 0 1-.477-1.808ZM138.602 61.326c.729 0 1.321.592 1.321 1.322v41.764a1.322 1.322 0 1 1-2.642 0V62.648c0-.73.591-1.322 1.321-1.322ZM151.458 68.662c.73 0 1.321.592 1.321 1.322v41.765a1.321 1.321 0 1 1-2.642 0V69.984c0-.73.591-1.322 1.321-1.322ZM104.333 81.093c.73 0 1.321.591 1.321 1.322v41.763a1.321 1.321 0 1 1-2.642 0V82.415c0-.73.591-1.323 1.321-1.323ZM94.113 35.623c.73 0 1.321.592 1.321 1.322V60.06a1.322 1.322 0 1 1-2.642 0V36.945c0-.73.592-1.322 1.321-1.322ZM164.682 76.303c.73 0 1.321.592 1.321 1.322v26.483a1.321 1.321 0 1 1-2.642 0V77.625c0-.73.591-1.322 1.321-1.322ZM178 83.997c.729 0 1.321.592 1.321 1.322v41.622a1.322 1.322 0 1 1-2.642 0V85.319c0-.73.591-1.322 1.321-1.322ZM186.334 48.513c.73 0 1.321.591 1.321 1.322v15.282a1.321 1.321 0 1 1-2.642 0V49.834c0-.73.592-1.322 1.321-1.322ZM212.876 64.508a.66.66 0 0 1 .66.661v26.593a.66.66 0 1 1-1.321 0V65.17c0-.365.296-.66.661-.66Z" clip-rule="evenodd"/>
</svg>